<!-- <svg xmlns="http://www.w3.org/2000/svg" fill="none" viewBox="0 0 163 163"><path fill="#339AF0" d="M162.162 81.5c0-45.011-36.301-81.5-81.08-81.5C36.301 0 0 36.489 0 81.5 0 126.51 36.301 163 81.081 163s81.081-36.49 81.081-81.5z"/><path fill="#fff" d="M65.983 43.049a6.234 6.234 0 00-.336 6.884 6.14 6.14 0 001.618 1.786c9.444 7.036 14.866 17.794 14.866 29.52 0 11.726-5.422 22.484-14.866 29.52a6.145 6.145 0 00-1.616 1.786 6.21 6.21 0 00-.694 4.693 6.21 6.21 0 001.028 2.186 6.151 6.151 0 006.457 2.319 6.154 6.154 0 002.177-1.035 50.083 50.083 0 007.947-7.39h17.493c3.406 0 6.174-2.772 6.174-6.194s-2.762-6.194-6.174-6.194h-9.655a49.165 49.165 0 004.071-19.69 49.167 49.167 0 00-4.07-19.692h9.66c3.406 0 6.173-2.771 6.173-6.194 0-3.422-2.762-6.193-6.173-6.193H82.574a50.112 50.112 0 00-7.952-7.397 6.15 6.15 0 00-4.578-1.153 6.189 6.189 0 00-4.055 2.438h-.006z"/><path fill="#fff" fill-rule="evenodd" d="M56.236 79.391a9.342 9.342 0 01.632-3.608 9.262 9.262 0 011.967-3.077 9.143 9.143 0 012.994-2.063 9.06 9.06 0 017.103 0 9.145 9.145 0 012.995 2.063 9.262 9.262 0 011.967 3.077 9.339 9.339 0 01-2.125 10.003 9.094 9.094 0 01-6.388 2.63 9.094 9.094 0 01-6.39-2.63 9.3 9.3 0 01-2.755-6.395z" clip-rule="evenodd"/></svg> -->
<svg version="1.1" id="Layer_1" xmlns="http://www.w3.org/2000/svg" xmlns:xlink="http://www.w3.org/1999/xlink" x="0px" y="0px"
	 viewBox="0 0 512 512" style="enable-background:new 0 0 512 512;" xml:space="preserve">
<g>
	<path style="fill:#E15050;" d="M158.891,87.419H123.58c-4.875,0-8.828,3.953-8.828,8.828v17.655h52.966V96.247
		C167.718,91.372,163.766,87.419,158.891,87.419z"/>
	<path style="fill:#E15050;" d="M388.412,87.419h-35.311c-4.875,0-8.828,3.953-8.828,8.828v17.655h52.966V96.247
		C397.239,91.372,393.287,87.419,388.412,87.419z"/>
</g>
<path style="fill:#FFC855;" d="M508.319,349.391L421.413,122.1c-3.921-10.253-13.759-17.025-24.736-17.025h-47.05
	c-8.854,0-17.124,4.425-22.035,11.793l-4.552,6.828c-3.274,4.912-8.787,7.862-14.69,7.862H203.65c-5.904,0-11.415-2.951-14.69-7.862
	l-4.552-6.828c-4.912-7.368-13.181-11.793-22.035-11.793h-47.05c-10.977,0-20.817,6.772-24.736,17.025L3.681,349.391
	c-11.526,30.143,4.991,63.727,35.902,73.001c18.986,5.696,39.558,0.069,53.003-14.496l83.96-90.956h158.908l83.96,90.956
	c13.445,14.566,34.017,20.191,53.003,14.496C503.327,413.119,519.845,379.535,508.319,349.391z"/>
<g>
	<path style="fill:#FAAF50;" d="M375.997,123.696l4.552-6.828c4.484-6.728,11.808-10.821,19.782-11.512
		c-1.201-0.167-2.418-0.28-3.655-0.28h-47.05c-8.854,0-17.124,4.425-22.035,11.793l-4.552,6.828
		c-3.274,4.912-8.787,7.862-14.69,7.862h52.958C367.21,131.558,372.723,128.607,375.997,123.696z"/>
	<path style="fill:#FAAF50;" d="M56.639,349.391L143.544,122.1c3.478-9.098,11.624-15.428,21.083-16.745
		c-0.759-0.066-1.485-0.28-2.253-0.28h-47.05c-10.977,0-20.817,6.772-24.736,17.025L3.681,349.391
		c-11.526,30.143,4.991,63.727,35.902,73.001c14.074,4.222,29.005,2.194,41.273-5.056C57.704,404.071,46.67,375.461,56.639,349.391z
		"/>
	<path style="fill:#FAAF50;" d="M472.371,407.896L357.328,286.571c-8.334-8.79-19.915-13.768-32.029-13.768H211.857v44.139h123.597
		l82.636,89.522c11.875,12.865,29.21,20.074,46.548,17.633c7.224-1.017,13.69-3.453,19.463-6.76
		C479.82,414.806,475.849,411.665,472.371,407.896z"/>
</g>
<circle style="fill:#5F505A;" cx="145.647" cy="215.419" r="44.139"/>
<g>
	<path style="fill:#84787E;" d="M145.649,202.18c-7.31,0-13.242-5.931-13.242-13.242v-17.655c0-7.31,5.931-13.242,13.242-13.242
		s13.242,5.931,13.242,13.242v17.655C158.891,196.249,152.959,202.18,145.649,202.18z"/>
	<path style="fill:#84787E;" d="M145.649,272.802c-7.31,0-13.242-5.931-13.242-13.242v-17.655c0-7.31,5.931-13.242,13.242-13.242
		s13.242,5.931,13.242,13.242v17.655C158.891,266.871,152.959,272.802,145.649,272.802z"/>
	<path style="fill:#84787E;" d="M119.166,228.697H101.51c-7.31,0-13.242-5.931-13.242-13.242s5.931-13.242,13.242-13.242h17.655
		c7.31,0,13.242,5.931,13.242,13.242S126.476,228.697,119.166,228.697z"/>
	<path style="fill:#84787E;" d="M189.788,228.697h-17.655c-7.31,0-13.242-5.931-13.242-13.242s5.931-13.242,13.242-13.242h17.655
		c7.31,0,13.242,5.931,13.242,13.242S197.098,228.697,189.788,228.697z"/>
	<circle style="fill:#84787E;" cx="366.34" cy="215.419" r="57.38"/>
	<circle style="fill:#84787E;" cx="313.374" cy="294.902" r="30.897"/>
</g>
<g>
	<circle style="fill:#5F505A;" cx="313.374" cy="294.902" r="13.242"/>
	<circle style="fill:#5F505A;" cx="366.34" cy="182.315" r="16.552"/>
	<circle style="fill:#5F505A;" cx="366.34" cy="248.523" r="16.552"/>
	<circle style="fill:#5F505A;" cx="399.444" cy="215.419" r="16.552"/>
	<circle style="fill:#5F505A;" cx="333.236" cy="215.419" r="16.552"/>
</g>
<path style="fill:#FAAF50;" d="M255.996,193.352c-9.751,0-17.655,7.904-17.655,17.655l0,0c0,9.75,7.904,17.655,17.655,17.655
	s17.655-7.905,17.655-17.655l0,0C273.651,201.257,265.746,193.352,255.996,193.352z"/>
<circle style="fill:#84787E;" cx="198.613" cy="294.902" r="30.897"/>
<circle style="fill:#5F505A;" cx="198.613" cy="294.902" r="13.242"/>
</svg>
